<svg width="379" height="302" viewBox="0 0 379 302" fill="none" xmlns="http://www.w3.org/2000/svg">
<g opacity="0.03">
<path fill-rule="evenodd" clip-rule="evenodd" d="M360.757 68.4684C343.476 76.628 325.869 84.0596 307.936 90.7632C300.782 93.4271 293.222 95.347 285.877 97.6269C282.873 98.5628 279.868 99.4028 276.911 100.459C260.409 106.386 256.283 111.906 256.903 129.497C257.343 140.915 254.759 152.245 249.415 162.327C242.825 174.958 234.597 186.651 224.948 197.102L210.783 191.726C213.311 187.934 215.29 184.982 217.293 182.126C227.256 168.328 233.515 152.176 235.465 135.233C236.306 128.467 234.888 121.612 231.435 115.746C225.187 105.018 227.524 98.5868 239.376 94.675C249.868 91.2192 260.838 88.8433 271.402 85.8195C299.591 77.9408 326.86 67.0473 352.744 53.3252L360.757 68.4684Z" fill="#1D254C"/>
<path fill-rule="evenodd" clip-rule="evenodd" d="M174.083 162.039C172.032 164.679 170.339 166.839 168.598 169.095C167.698 170.419 166.32 171.337 164.757 171.656C163.194 171.974 161.57 171.666 160.228 170.799C140.268 160.695 124.458 147.016 120.451 123.353C118.725 113.961 113.634 105.532 106.143 99.6667C94.9788 90.3579 82.3061 83.0517 68.6796 78.0678C52.6783 71.8282 36.5339 65.9005 20.3418 59.9968C22.7265 55.485 25.302 51.0933 28.0682 46.7975C50.9136 57.4369 74.3155 66.9644 98.2737 75.38C105.285 77.7798 112.582 79.1238 119.879 81.1877C125.023 82.4441 130.038 84.1878 134.855 86.3954C144.585 91.3391 147.875 99.5707 145.085 110.106C144.492 112.445 143.694 114.725 142.701 116.922C137.526 127.793 139.791 137.609 148.09 145.432C153.623 150.664 160.514 154.408 166.905 158.656C169.217 159.949 171.616 161.08 174.083 162.039Z" fill="#1D254C"/>
<path fill-rule="evenodd" clip-rule="evenodd" d="M371.584 97.2427L369.796 97.8906C352.578 103.962 334.931 108.858 317.475 114.306C305.774 117.954 294.073 121.633 282.373 125.345C280.131 126.041 277.937 126.833 275.433 127.745C273.335 122.945 274.479 119.322 277.818 117.042C283.773 112.637 290.167 108.865 296.895 105.786C313.23 99.2346 330.281 94.3868 346.306 87.4032C352.665 84.6673 358.937 81.8435 365.121 78.9316C367.594 84.9168 369.751 91.029 371.584 97.2427V97.2427Z" fill="#1D254C"/>
<path fill-rule="evenodd" clip-rule="evenodd" d="M377.713 128.033C373.945 129.617 370.105 131.057 366.171 132.401C337.156 142.28 307.111 148.778 276.625 151.768C275.481 151.768 274.241 151.768 272.571 151.768C272.834 140.297 272.834 140.321 282.42 137.369C303.882 130.649 325.345 124.265 346.473 117.018C355.726 113.818 364.859 110.306 373.873 106.482C375.579 113.582 376.862 120.779 377.713 128.033Z" fill="#1D254C"/>
<path fill-rule="evenodd" clip-rule="evenodd" d="M4.19707 101.419C15.157 104.617 26.3081 107.11 37.5828 108.882C53.2265 111.282 68.5839 115.794 84.0129 119.394C87.3038 120.138 90.5231 121.218 93.814 121.793C105.117 123.857 105.738 124.433 107.502 137.321C105.119 137.445 102.731 137.445 100.348 137.321C74.4264 134.609 48.3378 131.993 22.2969 129.041C14.5045 128.082 6.94968 125.708 0 122.033L4.19707 101.419Z" fill="#1D254C"/>
<path fill-rule="evenodd" clip-rule="evenodd" d="M379 150.4C360.328 163.028 338.484 170.076 315.997 170.727C299.876 171.495 283.756 172.143 267.635 172.791C266.453 172.716 265.284 172.498 264.153 172.143C265.012 165.327 268.517 162.543 275.051 161.631C299.089 157.936 323.127 154.048 347.022 149.392C357.871 147.237 368.485 144.022 378.714 139.793L379 150.4Z" fill="#1D254C"/>
<path fill-rule="evenodd" clip-rule="evenodd" d="M1.64551 135.665L37.106 142.408C53.6828 145.496 70.5711 146.544 87.3993 145.528C93.6472 145.168 99.9189 145.264 106.167 145.24C115.896 145.24 116.039 145.24 120.117 155.176C92.741 171.447 29.2603 161.463 1.64551 135.665Z" fill="#1D254C"/>
<path fill-rule="evenodd" clip-rule="evenodd" d="M342.371 179.99C319.669 203.605 282.157 204.325 252.349 189.11C256.403 181.406 256.474 181.118 264.391 182.75C287.308 187.55 309.939 184.574 332.57 180.806C335.408 180.326 338.269 179.87 341.107 179.438C341.322 179.462 341.536 179.678 342.371 179.99Z" fill="#1D254C"/>
<path fill-rule="evenodd" clip-rule="evenodd" d="M47.2646 174.255C49.6476 174.123 52.0358 174.123 54.4187 174.255C77.6174 177.422 101.232 174.953 123.289 167.055C129.155 164.943 133.519 166.239 136.595 171.711C123.575 191.294 71.0401 193.406 47.2646 174.255Z" fill="#1D254C"/>
<path fill-rule="evenodd" clip-rule="evenodd" d="M155.458 182.39C147.112 191.774 139.028 201.061 125.221 200.989C115.703 201.063 106.196 200.348 96.7949 198.853C97.2608 198.398 97.7815 198.003 98.345 197.678C113.583 191.894 128.917 186.302 144.06 180.23C148.4 178.575 151.762 178.527 155.458 182.39Z" fill="#1D254C"/>
<path fill-rule="evenodd" clip-rule="evenodd" d="M294.415 210.613C276.935 220.716 253.565 216.732 239.353 201.013L247.294 194.966C261.411 203.173 275.981 212.629 294.415 210.613Z" fill="#1D254C"/>
<path fill-rule="evenodd" clip-rule="evenodd" d="M246.793 0C223.208 33.0463 199.599 66.0925 176.802 97.9868C177.827 101.947 178.447 104.322 179.186 107.37L170.411 105.402C171.746 109.242 172.795 112.074 174.179 116.202L166.238 113.586C161.468 117.426 172.533 120.378 166.238 123.761C163.328 124.193 159.799 118.77 157.843 125.849L177.541 137.009L193.161 113.994H195.331C197.342 117.005 199.029 120.223 200.363 123.593C201.203 127.379 201.484 131.269 201.197 135.137C200.744 148.744 194.043 159.688 185.53 169.503C165.498 192.374 143.607 213.157 117.804 229.284C101.636 239.387 85.1339 248.939 68.7749 258.73C66.5571 260.074 64.3155 261.37 61.9785 262.738C65.8417 267.346 65.8894 267.538 69.6334 265.354C74.4028 262.594 79.1722 259.642 84.0608 256.786L85.0862 258.418L69.9434 269.89C73.4012 275.001 76.1675 272.29 78.7429 270.346C95.6584 257.466 112.534 244.547 129.37 231.588C131.946 229.62 134.378 226.428 137.883 231.924C133.496 236.028 129.155 240.107 124.791 244.139C120.427 248.171 115.873 252.275 111.366 256.306C106.859 260.338 101.827 264.49 97.272 268.834C93.0988 272.818 87.5663 275.505 84.1562 282.057C92.288 282.297 94.9112 274.089 101.493 273.082C99.5852 278.505 92.908 279.921 92.2642 287.649C98.7982 284.097 102.161 279.081 106.31 275.097C110.459 271.114 114.466 266.842 118.496 262.666C122.526 258.49 126.866 253.955 131.016 249.563C135.165 245.171 139.123 240.779 143.583 235.956L148.352 240.467L105.428 291.297C106.024 291.945 106.644 292.545 107.264 293.168C113.655 291.945 114.561 283.569 121.691 280.545C118.591 286.305 116.159 290.793 113.726 295.256L115.682 296.504C117.28 294.608 119.02 292.785 120.451 290.769C130.515 276.545 140.538 262.29 150.522 248.003C152.454 245.243 154.314 241.811 158.344 246.731C148.161 264.826 134.235 280.521 124.648 299.144C131.802 298.76 132.112 290.841 137.764 288.009C135.69 292.809 133.901 296.816 132.136 300.896L134.116 302C135.523 300.224 137.073 298.544 138.289 296.672C142.486 290.145 146.755 283.665 150.618 276.969C163.09 255.37 175.371 233.772 187.771 212.173C189.154 209.773 189.703 205.573 195.426 208.669C189.441 223.884 180.26 237.467 173.415 252.659C174.106 252.891 174.839 252.971 175.564 252.893C176.288 252.814 176.987 252.579 177.613 252.203C178.823 250.736 179.848 249.123 180.665 247.403C186.388 237.011 192.016 226.572 197.882 216.205C199.263 214.391 200.884 212.776 202.7 211.405L204.798 213.037C198.751 227.705 191.575 241.875 183.336 255.418C187.151 258.058 189.274 257.122 190.895 254.387C200.066 238.352 207.999 221.632 214.623 204.373L197.048 194.39C201.412 182.798 205.633 172.239 209.377 161.511C215.72 143.464 218.033 125.513 209.997 107.01C205.195 95.9556 204.777 83.4712 208.828 72.1162C210.917 65.9349 213.659 59.9971 217.008 54.4051C226.547 38.662 236.491 23.2068 246.244 7.6316C247.336 5.59995 248.316 3.50885 249.177 1.36793L246.793 0ZM193.733 101.107C192.658 101.11 191.594 100.897 190.602 100.481C189.61 100.064 188.711 99.4518 187.958 98.6803C187.205 97.9089 186.613 96.9937 186.216 95.9885C185.82 94.9833 185.627 93.9084 185.649 92.8271C185.649 88.6513 189.774 83.8756 193.375 83.7076C195.643 83.7907 197.803 84.7009 199.452 86.2684C201.102 87.836 202.129 89.9538 202.342 92.2271C202.279 94.5253 201.358 96.7153 199.763 98.3609C198.167 100.006 196.014 100.987 193.733 101.107V101.107Z" fill="#1D254C"/>
<path fill-rule="evenodd" clip-rule="evenodd" d="M101.183 114.642C96.2464 113.73 92.4786 113.25 88.83 112.242C61.6763 105.043 34.5304 97.8429 7.39258 90.6433C9.4862 84.1667 11.9383 77.8131 14.7374 71.6123L17.2652 72.5243C37.4875 79.7239 57.8051 86.3235 78.075 93.5231C86.3276 96.4706 93.4459 101.963 98.4165 109.218C99.4514 110.966 100.375 112.777 101.183 114.642V114.642Z" fill="#1D254C"/>
<path fill-rule="evenodd" clip-rule="evenodd" d="M194.162 88.9394C193.484 88.9442 192.822 89.1509 192.261 89.5335C191.699 89.9161 191.263 90.4574 191.007 91.0893C190.75 91.7212 190.686 92.4152 190.821 93.084C190.956 93.7528 191.285 94.3663 191.766 94.8472C192.247 95.3281 192.859 95.6549 193.525 95.7863C194.19 95.9177 194.879 95.8479 195.506 95.5856C196.132 95.3234 196.667 94.8804 197.043 94.3127C197.419 93.7449 197.62 93.0777 197.62 92.3952C197.62 91.9394 197.53 91.488 197.356 91.0672C197.182 90.6463 196.927 90.2643 196.606 89.9431C196.284 89.6219 195.903 89.3678 195.484 89.1955C195.064 89.0233 194.615 88.9362 194.162 88.9394Z" fill="#1D254C"/>
</g>
</svg>
